<?xml version="1.0" encoding="UTF-8"?>
<svg version="1.1" xmlns="http://www.w3.org/2000/svg" width="880" height="245">
<path d="M0 0 C92.07 0 184.14 0 279 0 C279 35.31 279 70.62 279 107 C186.93 107 94.86 107 0 107 C0 71.69 0 36.38 0 0 Z " fill="#000732" transform="translate(596,69)"/>
<path d="M0 0 C36.67741935 0 36.67741935 0 46.0625 5.9375 C51.44214443 11.66421826 52.48180206 17.39733731 52.41015625 25.04296875 C51.6232183 30.71641664 48.65443095 35.65111506 44.37109375 39.44140625 C42.8125 40.5 42.8125 40.5 40 42 C39.01 42.66 38.02 43.32 37 44 C37.78375 44.845625 38.5675 45.69125 39.375 46.5625 C44.0649618 52.00998532 47.82474188 58.12986967 51.74658203 64.13671875 C53.05224528 66.07766575 54.42300754 67.9592357 55.80859375 69.84375 C58 73 58 73 58 75 C45.07692308 76.34719335 45.07692308 76.34719335 40.83203125 73.59375 C38.94704447 71.17352006 37.50293503 68.67783524 36 66 C34.58774439 63.7815665 33.14656495 61.58341566 31.70410156 59.38452148 C29.81395275 56.49057342 27.96755086 53.56967229 26.12573242 50.64477539 C24.96863989 48.84587849 24.96863989 48.84587849 23 47 C20.03 46.67 17.06 46.34 14 46 C14 55.9 14 65.8 14 76 C9.38 76 4.76 76 0 76 C0 50.92 0 25.84 0 0 Z " fill="#4078CE" transform="translate(708,86)"/>
<path d="M0 0 C39.8245614 0 39.8245614 0 48.6875 8.5625 C49.94921875 10.25390625 49.94921875 10.25390625 51 12 C51.36738281 12.56203125 51.73476563 13.1240625 52.11328125 13.703125 C54.58277992 20.09988808 54.25970974 29.51264179 51.9375 35.94140625 C48.04007212 42.20059069 42.67897517 45.69646188 35.8359375 48.12109375 C31.30479063 49.15928932 27.18447581 49.22106976 22.5625 49.125 C19.736875 49.08375 16.91125 49.0425 14 49 C14 57.58 14 66.16 14 75 C9.38 75 4.76 75 0 75 C0 50.25 0 25.5 0 0 Z " fill="#4179CF" transform="translate(804,86)"/>
<path d="M0 0 C40.93846154 0 40.93846154 0 49.125 8.0625 C53.96648884 14.09698729 53.61894368 20.53730765 53 28 C50.96403246 35.60421611 45.29147009 39.80568661 39 44 C39.51046875 44.65742188 40.0209375 45.31484375 40.546875 45.9921875 C45.4391496 52.39378086 50.07322011 58.9339117 54.5625 65.625 C55.09907227 66.41890137 55.63564453 67.21280273 56.18847656 68.03076172 C56.68444336 68.77600098 57.18041016 69.52124023 57.69140625 70.2890625 C58.13685791 70.95631348 58.58230957 71.62356445 59.04125977 72.31103516 C60 74 60 74 60 76 C57.41554227 76.1081866 54.83562648 76.18737237 52.25 76.25 C51.52039063 76.28351563 50.79078125 76.31703125 50.0390625 76.3515625 C44.532947 76.45167369 44.532947 76.45167369 41.95239258 74.26464844 C40.04345916 72.0504098 38.44183379 69.83882726 36.87109375 67.375 C36.31099609 66.50359375 35.75089844 65.6321875 35.17382812 64.734375 C34.60083984 63.83203125 34.02785156 62.9296875 33.4375 62 C32.29160554 60.2075394 31.14451245 58.41584438 29.99609375 56.625 C29.49263428 55.83351562 28.9891748 55.04203125 28.47045898 54.2265625 C27.74258179 53.12441406 27.74258179 53.12441406 27 52 C26.44324585 50.92878906 26.44324585 50.92878906 25.87524414 49.8359375 C23.32899583 47.01991801 23.32899583 47.01991801 15 46 C15 55.9 15 65.8 15 76 C10.05 76 5.1 76 0 76 C0 50.92 0 25.84 0 0 Z M15 11 C15 19.25 15 27.5 15 36 C25.28445325 36.45747146 25.28445325 36.45747146 34.640625 32.77734375 C37.97114594 29.18842032 39 25.81062422 39 21 C37.76810086 17.44118026 36.68256229 15.54984184 33.75 13.1875 C27.5750308 10.52103603 21.73019978 11 15 11 Z " fill="#000631" transform="translate(218,86)"/>
<path d="M0 0 C4.95 0 9.9 0 15 0 C15 10.56 15 21.12 15 32 C26.55 32 38.1 32 50 32 C50 21.44 50 10.88 50 0 C54.95 0 59.9 0 65 0 C65 24.75 65 49.5 65 75 C60.05 75 55.1 75 50 75 C50 64.11 50 53.22 50 42 C38.45 42 26.9 42 15 42 C15 52.89 15 63.78 15 75 C10.05 75 5.1 75 0 75 C0 50.25 0 25.5 0 0 Z " fill="#000731" transform="translate(109,86)"/>
<path d="M0 0 C16.17 0 32.34 0 49 0 C49 3.96 49 7.92 49 12 C37.78 12 26.56 12 15 12 C15 18.6 15 25.2 15 32 C23.91 32 32.82 32 42 32 C42 35.63 42 39.26 42 43 C33.09 43 24.18 43 15 43 C15 49.6 15 56.2 15 63 C26.22 63 37.44 63 49 63 C49 66.96 49 70.92 49 75 C32.83 75 16.66 75 0 75 C0 50.25 0 25.5 0 0 Z " fill="#000732" transform="translate(475,86)"/>
<path d="M0 0 C2.43868168 -0.1079859 4.87259133 -0.18726589 7.3125 -0.25 C8.00279297 -0.28351563 8.69308594 -0.31703125 9.40429688 -0.3515625 C11.42578125 -0.390625 11.42578125 -0.390625 15 0 C17.28217714 2.49397271 18.57841303 5.04018251 19.76171875 8.18261719 C20.07214111 8.99736511 20.38256348 9.81211304 20.70239258 10.65155029 C21.02747803 11.52450745 21.35256348 12.3974646 21.6875 13.296875 C22.03127686 14.20447571 22.37505371 15.11207642 22.72924805 16.04718018 C23.82558086 18.94586671 24.91289437 21.84784202 26 24.75 C26.73117964 26.68772318 27.46294429 28.62522573 28.1953125 30.5625 C30.13773914 35.70552101 32.0708207 40.85199752 34 46 C34.57679586 47.53809609 35.15361677 49.07618277 35.73046875 50.61425781 C36.14941406 51.73155273 36.56835938 52.84884766 37 54 C37.45850342 52.82083008 37.91700684 51.64166016 38.3894043 50.42675781 C40.11191608 45.99797134 41.83632894 41.56992703 43.5612793 37.14208984 C44.30364971 35.23571224 45.04552344 33.32914113 45.78686523 31.42236328 C57.37171547 1.62828453 57.37171547 1.62828453 59 0 C61.53049402 -0.07313567 64.03304837 -0.09247527 66.5625 -0.0625 C67.62887695 -0.05573242 67.62887695 -0.05573242 68.71679688 -0.04882812 C70.47790013 -0.03700864 72.23896036 -0.01907263 74 0 C73.2861637 4.88459268 71.43384039 9.1926793 69.5703125 13.7265625 C69.0504628 15.00635231 69.0504628 15.00635231 68.52011108 16.31199646 C67.39264481 19.08474495 66.25896071 21.85490193 65.125 24.625 C64.35054451 26.52515973 63.57645737 28.42546962 62.80273438 30.32592773 C61.26032012 34.11287379 59.71552952 37.89883719 58.16894531 41.68408203 C56.25638634 46.36744795 54.35577339 51.05553454 52.4609375 55.74609375 C51.9478479 57.01419819 51.43466829 58.28226622 50.92138672 59.55029297 C49.99193903 61.84693234 49.06382352 64.14411141 48.13720703 66.44189453 C47.73099121 67.4420459 47.32477539 68.44219727 46.90625 69.47265625 C46.55884766 70.33125244 46.21144531 71.18984863 45.85351562 72.07446289 C45 74 45 74 44 75 C41.64686445 75.07271741 39.29166332 75.08370868 36.9375 75.0625 C35.00197266 75.04896484 35.00197266 75.04896484 33.02734375 75.03515625 C32.02832031 75.02355469 31.02929688 75.01195312 30 75 C22.44666125 56.9772318 14.93081682 38.93926398 7.56546021 20.8387146 C6.89678845 19.19616053 6.22692715 17.55409022 5.55587769 15.9125061 C4.61832026 13.61758116 3.68540405 11.32082749 2.75390625 9.0234375 C2.47338409 8.33862808 2.19286194 7.65381866 1.90383911 6.94825745 C0 2.22922021 0 2.22922021 0 0 Z " fill="#000631" transform="translate(365,86)"/>
<path d="M0 0 C15.84 0 31.68 0 48 0 C48 3.63 48 7.26 48 11 C36.78 11 25.56 11 14 11 C14 17.93 14 24.86 14 32 C22.91 32 31.82 32 41 32 C41 35.63 41 39.26 41 43 C32.42 43 23.84 43 15 43 C15 49.93 15 56.86 15 64 C25.89 64 36.78 64 48 64 C48 67.63 48 71.26 48 75 C32.16 75 16.32 75 0 75 C0 50.25 0 25.5 0 0 Z " fill="#4078CD" transform="translate(619,86)"/>
<path d="M0 0 C19.8 0 39.6 0 60 0 C60 3.96 60 7.92 60 12 C52.74 12 45.48 12 38 12 C38 33.12 38 54.24 38 76 C33.05 76 28.1 76 23 76 C23 54.88 23 33.76 23 12 C15.41 12 7.82 12 0 12 C0 8.04 0 4.08 0 0 Z " fill="#000732" transform="translate(11,86)"/>
<path d="M0 0 C4.95 0 9.9 0 15 0 C15 24.75 15 49.5 15 75 C10.05 75 5.1 75 0 75 C0 50.25 0 25.5 0 0 Z " fill="#000732" transform="translate(314,86)"/>
<path d="M0 0 C16.84404941 -0.70183539 16.84404941 -0.70183539 22.71484375 3.7109375 C25.4538846 6.4583037 25.1948387 9.08451525 25.25 12.8125 C25.27578125 13.85019531 25.3015625 14.88789062 25.328125 15.95703125 C24.9445401 19.51432453 24.24653441 21.22014965 22 24 C17.21224601 27.23629705 13.1767637 27.38172579 7.625 27.1875 C3.850625 27.0946875 3.850625 27.0946875 0 27 C0 18.09 0 9.18 0 0 Z " fill="#000733" transform="translate(818,97)"/>
<path d="M0 0 C17.13199246 -0.35323696 17.13199246 -0.35323696 22.4375 4 C24.70951012 8.36225944 24.88619981 12.18369667 24 17 C22.271368 20.59702574 19.96284156 22.59790424 16.25 24.1484375 C12.73103839 25.07047311 9.75535817 25.19908894 6.125 25.125 C3.093125 25.063125 3.093125 25.063125 0 25 C0 16.75 0 8.5 0 0 Z " fill="#000834" transform="translate(722,97)"/>
</svg>
